<svg xmlns="http://www.w3.org/2000/svg" xmlns:xlink="http://www.w3.org/1999/xlink" id="Capa_1" x="0" y="0" version="1.1" viewBox="0 0 510 510" style="enable-background:new 0 0 510 510" xml:space="preserve"><style type="text/css">.st0{opacity:.9;fill:#f0db4f;enable-background:new}</style><g><g id="history"><path d="M267.8,12.8c-89.3,0-168.3,48.5-209.1,122.4L0,76.5v165.8h165.8l-71.4-71.4c33.2-63.8,96.9-107.1,173.4-107.1 C372.3,63.8,459,150.4,459,255s-86.7,191.3-191.3,191.3c-84.1,0-153-53.5-181.1-127.5H33.2c28,102,122.4,178.5,234.6,178.5 C402.9,497.3,510,387.6,510,255S400.4,12.8,267.8,12.8z M229.5,140.3v130l119.9,71.4l20.4-33.1l-102-61.2V140.3H229.5z" class="st0"/></g></g></svg>